<svg xmlns="http://www.w3.org/2000/svg" width="1348" xmlns:ev="http://www.w3.org/2001/xml-events" xmlns:xlink="http://www.w3.org/1999/xlink" height="773" viewBox="0 0 1348 773"><style type="text/css"><![CDATA[
.st4 {fill:#5663a3;font-family:Arial;font-size:10pt}
.st7 {fill:#596c9f;font-family:Arial;font-size:10pt;font-weight:bold}
.st5 {fill:#596c9f;font-family:Arial;font-size:10pt}
.st6 {fill:#596c9f;font-family:微软雅黑;font-size:10pt}
.st8 {fill:#696599;font-family:Times New Roman;font-size:12pt}
.st2 {fill:#ffffff;font-family:Arial;font-size:10pt}
.st1 {fill:#ffffff;font-family:Arial;font-size:16pt;font-weight:bold}
.st3 {font-family:Arial;font-size:10pt}
]]></style><defs/><g transform="translate(5,5)" id="page1"><rect y="0" fill="#ffffff" x="0" width="1338" stroke="#808080" height="763"/><path transform="translate(39,39)" fill="#6c83bf" id="shape1" fill-rule="evenodd" d="M77,8L77,0L0,0L0,8L77,8z"/><path transform="translate(128,39)" fill="#6c83bf" id="shape2" fill-rule="evenodd" d="M30,8L30,0L0,0L0,8L30,8z"/><path transform="translate(170,39)" fill="#6c83bf" id="shape3" fill-rule="evenodd" d="M30,8L30,0L0,0L0,8L30,8z"/><g transform="translate(272,114)" id="shape4"><path fill="#5383c3" stroke-width="2" stroke="#6c83bf" fill-rule="evenodd" d="M217,52L217,0L0,0L0,52L217,52z"/><text class="st1"><tspan y="32.8" x="8">Visual Studio Code</tspan></text></g><g transform="translate(304.5,400.35)" id="shape5"><path fill="#a1b1e1" stroke-width="2" stroke="#6c83bf" fill-rule="evenodd" d="M76,89.5L152,44.7L76,0L0,44.7L76,89.5z"/><text class="st2"><tspan y="48.7" x="32.5">GitHubDesktop</tspan></text></g><g transform="translate(380.5,308.37)" id="shape6"><path fill="none" stroke-width="2" stroke="#506190" d="M0,0L0,85.8"/><path fill="#506190" stroke-width="1" stroke="#506190" stroke-linecap="round" d="M0,92L4.2,84.6C3,85.4,1.5,85.8,0,85.8C-1.5,85.8,-3,85.4,-4.2,84.6L0,92"/><rect y="31.3" fill="#ffffff" x="-13.1" width="31.9" height="16"/><text class="st3"><tspan y="43.3" x="-13.2">Open</tspan></text></g><g transform="translate(323.5,74)" id="shape7"><text class="st4"><tspan y="18" x="40.8">Install</tspan></text></g><g transform="translate(380.5,166)" id="shape8"><path fill="none" stroke-width="2" stroke="#506190" d="M0,0L0,49.8"/><path fill="#506190" stroke-width="1" stroke="#506190" stroke-linecap="round" d="M0,56L4.2,48.7C3,49.4,1.5,49.8,0,49.8C-1.5,49.8,-3,49.4,-4.2,48.7L0,56"/><rect y="22.6" fill="#ffffff" x="-39.9" width="86.7" height="16"/><text class="st3"><tspan y="34.6" x="-40">Create &amp; Save</tspan></text></g><g transform="translate(744,332.5)" id="shape9"><path fill="#eaf4fd" stroke-width="2" stroke="#6c83bf" fill-rule="evenodd" d="M209,73L209,0L0,0L0,73L209,73z"/><text class="st5"><tspan y="40.5" x="54.4">Push/Pull to Main</tspan></text></g><g transform="translate(456.5,445.09)" id="shape10"><path fill="none" stroke-width="2" stroke="#506190" d="M0,0L248.5,0C252.4,0,255.5,-3.1,255.5,-7L255.5,-69.1C255.5,-73,258.6,-76.1,262.5,-76.1L281.3,-76.1"/><path fill="#506190" stroke-width="1" stroke="#506190" stroke-linecap="round" d="M287.5,-76.1L280.2,-80.3C280.9,-79.1,281.3,-77.6,281.3,-76.1C281.3,-74.5,280.9,-73.1,280.2,-71.8L287.5,-76.1"/><rect y="-24" fill="#ffffff" x="104.1" width="83.4" height="16"/><rect y="-8" fill="#ffffff" x="104.9" width="81.8" height="16"/><rect y="8" fill="#ffffff" x="122.9" width="45" height="16"/><text class="st3"><tspan y="-12" x="104">View changes </tspan><tspan y="4" x="104.8">Add comment</tspan><tspan y="20" x="122.4">Commit</tspan></text></g><g transform="translate(385,650.59)" id="shape11"><path fill="#eceff8" stroke-width="2" stroke="#6c83bf" fill-rule="evenodd" d="M0,73L151,73L151,0L20,0L0,20L0,73z"/><text class="st6"><tspan y="40.9" x="58.4">HTML</tspan></text></g><g transform="translate(848.5,405.5)" id="shape12"><path fill="none" stroke-width="2" stroke="#506190" d="M0,0L0,252.9"/><path fill="#506190" stroke-width="1" stroke="#506190" stroke-linecap="round" d="M0,259.1L4.2,251.7C3,252.5,1.5,252.9,0,252.9C-1.5,252.9,-3,252.5,-4.2,251.7L0,259.1"/><rect y="176.6" fill="#ffffff" x="-13.1" width="31.9" height="16"/><text class="st3"><tspan y="188.6" x="-13.2">Open</tspan></text><rect y="23" fill="#ffffff" x="-13.1" width="31.9" height="16"/><text class="st3"><tspan y="35" x="-13.2">Open</tspan></text></g><g transform="translate(787.5,664.59)" id="shape13"><path fill="#eaf4fd" stroke-width="2" stroke="#6c83bf" fill-rule="evenodd" d="M122,59L122,0L0,0L0,59L122,59z"/><text class="st7"><tspan y="33.5" x="24.8">Reposytory</tspan></text></g><g transform="translate(772.5,461.33)" id="shape14"><path fill="#a1b1e1" stroke-width="2" stroke="#6c83bf" fill-rule="evenodd" d="M76,89.4L152,44.7L76,0L0,44.7L76,89.4z"/><text class="st2"><tspan y="48.7" x="35.7">GitHub Pages</tspan></text></g><g transform="translate(787.5,694.09)" id="shape15"><path fill="none" stroke-width="2" stroke="#506190" d="M0,0L-216.5,0C-218.2,0,-219.5,-1.3,-219.5,-3L-219.5,-4C-219.5,-5.7,-220.8,-7,-222.5,-7L-245.3,-7"/><path fill="#506190" stroke-width="1" stroke="#506190" stroke-linecap="round" d="M-251.5,-7L-244.2,-2.8C-244.9,-4,-245.3,-5.5,-245.3,-7C-245.3,-8.5,-244.9,-10,-244.2,-11.2L-251.5,-7"/><rect y="-16" fill="#ffffff" x="-169.5" width="103" height="16"/><rect y="0" fill="#ffffff" x="-195.7" width="155.3" height="16"/><text class="st3"><tspan y="-4" x="-170.2">View Deployment</tspan><tspan y="12" x="-195.8">HTML oppened in browser</tspan></text></g><g transform="translate(578.5,114)" id="shape16"><path fill="#5383c3" stroke-width="2" stroke="#6c83bf" fill-rule="evenodd" d="M217,52L217,0L0,0L0,52L217,52z"/><text class="st1"><tspan y="32.8" x="25.6">GitHub Desktop</tspan></text></g><g transform="translate(654,63)" id="shape17"><text class="st8"><tspan class="st4" y="29" x="3.2">Install</tspan></text></g><g transform="translate(687,166)" id="shape18"><path fill="none" stroke-width="2" stroke="#506190" d="M0,0L0,49.8"/><path fill="#506190" stroke-width="1" stroke="#506190" stroke-linecap="round" d="M0,56L4.2,48.7C3,49.4,1.5,49.8,0,49.8C-1.5,49.8,-3,49.4,-4.2,48.7L0,56"/><rect y="22.6" fill="#ffffff" x="-66.7" width="141.4" height="16"/><text class="st3"><tspan y="34.6" x="-66.8">Create or Clone &amp; Save</tspan></text></g><g transform="translate(1086.52,179.63)" id="shape19"><path fill="#a1b1e1" stroke-width="2" stroke="#6c83bf" fill-rule="evenodd" d="M76,89.4L152,44.7L76,0L0,44.7L76,89.4z"/><text class="st2"><tspan y="48.7" x="35.7">GitHub Pages</tspan></text></g><g transform="translate(1238.52,224.31)" id="shape20"><path fill="none" stroke-width="2" stroke="#506190" d="M0,0L25,0C28.9,0,32,3.1,32,7L32,137.7C32,141.6,28.9,144.7,25,144.7L-279.3,144.7"/><path fill="#506190" stroke-width="1" stroke="#506190" stroke-linecap="round" d="M-285.5,144.7L-278.2,148.9C-278.9,147.7,-279.3,146.2,-279.3,144.7C-279.3,143.1,-278.9,141.7,-278.2,140.4L-285.5,144.7"/><rect y="128.7" fill="#ffffff" x="-137.3" width="133.3" height="16"/><rect y="144.7" fill="#ffffff" x="-116.9" width="92.4" height="16"/><text class="st3"><tspan y="140.7" x="-137.5">Pull Request Approved</tspan><tspan y="156.7" x="-117.5">Commit to Main</tspan></text></g><g transform="translate(748,251.5)" id="shape21"><path fill="none" stroke-width="2" stroke="#506190" d="M0,0L299.5,0C303.4,0,306.5,-3.1,306.5,-7L306.5,-20.2C306.5,-24.1,309.7,-27.2,313.5,-27.2L332.3,-27.2"/><path fill="#506190" stroke-width="1" stroke="#506190" stroke-linecap="round" d="M338.5,-27.2L331.2,-31.4C331.9,-30.2,332.3,-28.7,332.3,-27.2C332.3,-25.6,331.9,-24.2,331.2,-22.9L338.5,-27.2"/><rect y="-24" fill="#ffffff" x="110.7" width="113.6" height="16"/><rect y="-8" fill="#ffffff" x="124.6" width="85.8" height="16"/><rect y="8" fill="#ffffff" x="68.2" width="199.5" height="16"/><text class="st3"><tspan y="-12" x="109.6">Invite Collaborators</tspan><tspan y="4" x="123.2">Create branch</tspan><tspan y="20" x="68">Pull Request to assigned reviewer</tspan></text></g><g transform="translate(1162.52,179.63)" id="shape22"><path fill="none" stroke-width="2" stroke="#506190" d="M0,0L0,-4C0,-6.2,-1.8,-8,-4,-8L-375.5,-8C-379.4,-8,-382.5,-4.9,-382.5,-1L-382.5,64.9C-382.5,68.7,-385.7,71.9,-389.5,71.9L-408.3,71.9"/><path fill="#506190" stroke-width="1" stroke="#506190" stroke-linecap="round" d="M-414.5,71.9L-407.2,76.1C-407.9,74.9,-408.3,73.4,-408.3,71.9C-408.3,70.3,-407.9,68.9,-407.2,67.6L-414.5,71.9"/><rect y="-16" fill="#ffffff" x="-244.7" width="129.2" height="16"/><text class="st3"><tspan y="-4" x="-244.9">Pull Request Rejected</tspan></text></g><g transform="translate(987,430)" id="shape23"><text class="st8"><tspan class="st4" y="29" x="3.2">Create account</tspan></text></g><g transform="translate(940.5,480.01)" id="shape24"><path fill="#5383c3" stroke-width="2" stroke="#6c83bf" fill-rule="evenodd" d="M217,52L217,0L0,0L0,52L217,52z"/><text class="st1"><tspan y="32.8" x="36.8">GitHub Pages</tspan></text></g><g transform="translate(626,222)" id="shape25"><path fill="#eaf4fd" stroke-width="2" stroke="#6c83bf" fill-rule="evenodd" d="M122,59L122,0L0,0L0,59L122,59z"/><text class="st7"><tspan y="33.5" x="24.8">Reposytory</tspan></text></g><g transform="translate(319.5,222)" id="shape26"><path fill="#eaf4fd" stroke-width="2" stroke="#6c83bf" fill-rule="evenodd" d="M122,59L122,0L0,0L0,59L122,59z"/><text class="st7"><tspan y="25.5" x="26.4">Markdown </tspan><tspan y="41.5" x="33.6">(.md file)</tspan></text></g><g transform="translate(380.5,321)" id="shape27"><path fill="none" stroke-width="2" stroke="#506190" d="M0,0L0,-33.8"/><path fill="#506190" stroke-width="1" stroke="#506190" stroke-linecap="round" d="M0,-40L-4.2,-32.7C-3,-33.4,-1.5,-33.8,0,-33.8C1.5,-33.8,3,-33.4,4.2,-32.7L0,-40"/></g></g></svg>